<svg xmlns="http://www.w3.org/2000/svg" width="20" height="20" viewBox="0 0 20 20">
    <g fill="none" fill-rule="evenodd">
        <g fill="#DE7474">
            <g>
                <path d="M859 85c0 .552-.448 1-1 1h-10c-.552 0-1-.448-1-1s.448-1 1-1h10c.552 0 1 .448 1 1zm-11-5h10c.552 0 1 .448 1 1s-.448 1-1 1h-10c-.552 0-1-.448-1-1s.448-1 1-1zm13 7c0 .552-.448 1-1 1h-14c-.552 0-1-.448-1-1V73c0-.552.448-1 1-1h9v4c0 1.104.895 2 2 2h4v9zm1.707-11.293l-5.414-5.414c-.188-.188-.442-.293-.707-.293H845c-1.105 0-2 .895-2 2v16c0 1.104.895 2 2 2h16c1.105 0 2-.896 2-2V76.414c0-.265-.105-.519-.293-.707z" transform="translate(-952 -2759) translate(109 2689)"/>
            </g>
        </g>
    </g>
</svg>
