<svg xmlns="http://www.w3.org/2000/svg" width="22" height="22"><path d="M19.081 15.6A3.854 3.854 0 0122 19.338v1.483A1.18 1.18 0 0120.821 22H1.18A1.18 1.18 0 010 20.821v-1.483a3.855 3.855 0 012.919-3.739l4.214-1.053-.005-.538c-.005-.482-.206-.962-.571-1.363-1.203-1.318-1.79-2.589-1.98-4.067-.072-.555-.085-.977-.085-1.93A6.613 6.613 0 0111.022 0c3.617.066 6.486 3.002 6.486 6.648 0 .954-.013 1.376-.085 1.931-.19 1.478-.777 2.749-1.98 4.067-.365.4-.566.881-.57 1.364l-.006.537 4.214 1.053zm.562 3.738c0-.686-.467-1.285-1.133-1.45l-4.434-1.109a2.069 2.069 0 01-1.569-2.03l.008-.764c.011-1.08.441-2.111 1.187-2.928.875-.96 1.254-1.78 1.383-2.78.055-.421.066-.776.066-1.629 0-2.364-1.843-4.248-4.13-4.291-2.33.043-4.172 1.927-4.172 4.29 0 .853.011 1.208.066 1.63.129.999.508 1.82 1.383 2.78.746.816 1.176 1.848 1.187 2.927l.008.763a2.07 2.07 0 01-1.569 2.031l-4.433 1.108a1.498 1.498 0 00-1.134 1.452v.305h17.286v-.305z" fill="#FFF"/></svg>