<svg xmlns="http://www.w3.org/2000/svg" width="79" height="65"><g fill="none" fill-rule="evenodd"><rect width="76" height="64" x="1" fill="#3D4A62" rx="5"/><path fill="#FFF" d="M3.202 28.66v-8.73h4.862v8.732h2.476V17.9H.725v10.76h2.477zm12.215 2.984v-3.86c.605.667 1.436 1 2.492 1 .769 0 1.469-.176 2.1-.53a3.809 3.809 0 001.484-1.492c.359-.64.538-1.386.538-2.237 0-.85-.18-1.595-.538-2.236a3.813 3.813 0 00-1.484-1.491 4.217 4.217 0 00-2.1-.53c-1.139 0-2.005.358-2.6 1.075v-.953h-2.292v11.254h2.4zm2.077-4.828c-.615 0-1.12-.207-1.516-.622-.394-.416-.592-.971-.592-1.669 0-.696.198-1.252.592-1.668.395-.415.9-.622 1.516-.622.615 0 1.12.207 1.515.622.394.416.592.972.592 1.668 0 .698-.198 1.253-.592 1.669-.395.415-.9.622-1.515.622zm8.43 1.845l4.016-4.92v4.92h2.383V20.39h-2.199l-4.03 4.92v-4.92h-2.385v8.27h2.215zm12.908.185c.871 0 1.65-.167 2.337-.5a3.823 3.823 0 001.608-1.415c.385-.61.578-1.31.578-2.098 0-.769-.162-1.445-.485-2.029a3.384 3.384 0 00-1.377-1.36c-.595-.324-1.287-.485-2.077-.485-.595 0-1.144.105-1.646.316-.502.209-.934.51-1.292.899.082-.79.35-1.4.807-1.83.457-.43 1.156-.738 2.1-.922l3.477-.692-.323-2.06-3.938.784c-1.498.307-2.608.955-3.331 1.945-.723.989-1.085 2.314-1.085 3.974 0 1.793.414 3.154 1.24 4.08.824.929 1.96 1.393 3.407 1.393zm.015-1.86c-.605 0-1.102-.198-1.493-.593-.39-.394-.584-.904-.584-1.529 0-.626.19-1.123.57-1.491.378-.37.881-.554 1.507-.554.615 0 1.11.184 1.484.554.375.368.562.865.562 1.491 0 .615-.187 1.122-.562 1.522-.374.4-.87.6-1.484.6zm10.014 1.798c.872 0 1.652-.182 2.34-.546a4.075 4.075 0 001.614-1.514c.39-.645.585-1.379.585-2.199 0-.82-.195-1.552-.585-2.198a4.079 4.079 0 00-1.615-1.514c-.687-.364-1.467-.545-2.339-.545-.871 0-1.653.181-2.345.545a4.055 4.055 0 00-1.623 1.514c-.39.646-.585 1.379-.585 2.198 0 .82.195 1.554.585 2.199.389.645.93 1.15 1.623 1.514.692.364 1.474.546 2.345.546zm0-1.968c-.615 0-1.122-.207-1.522-.622-.4-.416-.6-.971-.6-1.669 0-.696.2-1.252.6-1.668.4-.415.907-.622 1.522-.622s1.122.207 1.516.622c.395.416.593.972.593 1.668 0 .698-.198 1.253-.593 1.669-.394.415-.9.622-1.516.622zm8.57 4.828v-3.86c.604.667 1.436 1 2.492 1 .768 0 1.47-.176 2.1-.53a3.811 3.811 0 001.485-1.492c.359-.64.538-1.386.538-2.237 0-.85-.18-1.595-.538-2.236a3.815 3.815 0 00-1.485-1.491 4.217 4.217 0 00-2.1-.53c-1.138 0-2.005.358-2.6 1.075v-.953h-2.292v11.254h2.4zm2.076-4.828c-.615 0-1.12-.207-1.515-.622-.395-.416-.592-.971-.592-1.669 0-.696.197-1.252.592-1.668.395-.415.9-.622 1.515-.622.616 0 1.12.207 1.516.622.395.416.592.972.592 1.668 0 .698-.197 1.253-.592 1.669-.396.415-.9.622-1.516.622zm10.246 1.86c1.15 0 2.036-.25 2.662-.753.625-.502.938-1.214.938-2.136 0-.882-.276-1.559-.831-2.03-.553-.471-1.369-.713-2.445-.722h-1.97V20.39h-2.385v8.27l4.031.017zm4.493-.015h2.384V20.39h-2.384v8.27zm-4.617-1.69l-.09-.001h-1.432v-2.4l1.431.016c.472.01.828.107 1.069.292s.362.477.362.876c0 .41-.123.718-.369.923-.247.205-.6.302-1.062.292h.09z"/><path fill="#FFF" fill-opacity=".3" d="M2.966 50.01v8.835l.002.105a3.111 3.111 0 003.108 3.005h65.579a3.112 3.112 0 003.108-3.005l.002-.105v-8.836h2.223v9.28c0 2.7-2.188 4.887-4.89 4.887H5.632a4.887 4.887 0 01-4.887-4.888V50.01h2.22zm6.356 3.623a2.074 2.074 0 110 4.148 2.074 2.074 0 010-4.148zm59.431 0a2.074 2.074 0 110 4.148 2.074 2.074 0 010-4.148zM2.966 14.167V5.331l.002-.105a3.111 3.111 0 013.108-3.005h65.579a3.112 3.112 0 013.108 3.005l.002.105v8.836h2.223v-9.28c0-2.7-2.188-4.887-4.89-4.887H5.632A4.887 4.887 0 00.745 4.888v9.279h2.22zm6.356-3.624a2.073 2.073 0 10.001-4.147 2.073 2.073 0 00-.001 4.147zm59.431 0a2.073 2.073 0 10.001-4.147 2.073 2.073 0 00-.001 4.147z"/><path d="M7.479 46.814c1.166 0 2.224-.205 3.172-.614a6.222 6.222 0 002.385-1.788l-2-1.844c-.91 1.062-2.038 1.595-3.382 1.595-.834 0-1.579-.182-2.23-.547a3.88 3.88 0 01-1.53-1.529c-.364-.653-.546-1.396-.546-2.227 0-.832.182-1.577.545-2.23a3.892 3.892 0 011.53-1.526c.652-.365 1.397-.548 2.23-.548 1.345 0 2.473.525 3.383 1.576l2-1.846a6.365 6.365 0 00-2.375-1.767c-.942-.408-1.995-.614-3.16-.614-1.386 0-2.633.299-3.74.894a6.673 6.673 0 00-2.616 2.477C.512 37.333.193 38.528.193 39.86c0 1.331.32 2.526.952 3.584a6.677 6.677 0 002.616 2.476c1.107.595 2.347.894 3.718.894zm10.132-.23l5.017-6.148v6.148h2.98V36.249h-2.75l-5.035 6.147v-6.147h-2.98v10.334h2.768zm16.128.23c1.091 0 2.064-.21 2.923-.624.858-.417 1.53-1.006 2.01-1.767.48-.764.721-1.637.721-2.622 0-.962-.203-1.806-.605-2.537a4.221 4.221 0 00-1.722-1.7c-.745-.403-1.61-.606-2.595-.606-.744 0-1.429.133-2.057.394a4.608 4.608 0 00-1.616 1.124c.104-.987.44-1.748 1.01-2.285.57-.537 1.446-.923 2.624-1.153l4.345-.865-.402-2.574-4.924.979c-1.87.385-3.258 1.194-4.16 2.43-.905 1.237-1.357 2.892-1.357 4.968 0 2.24.516 3.94 1.547 5.1 1.033 1.157 2.452 1.738 4.258 1.738zm.021-2.325c-.755 0-1.377-.247-1.867-.74-.485-.492-.728-1.129-.728-1.91 0-.783.237-1.403.712-1.863.473-.463 1.101-.693 1.883-.693.77 0 1.388.23 1.854.693.469.46.701 1.08.701 1.862 0 .768-.232 1.402-.7 1.902-.467.5-1.086.75-1.855.75zm10.439 2.095l5.017-6.148v6.148h2.98V36.249h-2.75l-5.036 6.147v-6.147h-2.98v10.334h2.769zm13.86 3.727v-4.822c.756.831 1.795 1.248 3.116 1.248.96 0 1.834-.222 2.622-.663a4.757 4.757 0 001.856-1.863c.45-.8.672-1.732.672-2.796 0-1.062-.222-1.993-.672-2.796a4.774 4.774 0 00-1.856-1.862c-.788-.442-1.662-.662-2.622-.662-1.425 0-2.505.446-3.25 1.344v-1.19h-2.866v14.062h3zm2.596-6.033c-.768 0-1.4-.26-1.892-.778-.496-.519-.743-1.214-.743-2.085 0-.87.247-1.566.743-2.084.492-.519 1.124-.778 1.892-.778.769 0 1.4.26 1.893.778.494.518.74 1.213.74 2.084s-.246 1.566-.74 2.085c-.493.518-1.124.778-1.893.778zm12.958 2.325c1.448 0 2.572-.318 3.373-.952.8-.633 1.203-1.52 1.203-2.66 0-1.088-.361-1.93-1.079-2.528-.715-.595-1.748-.898-3.094-.91H71.4v-3.304h-2.978v10.334l5.191.019zm-.083-2.133H71.4v-2.997l1.944.019c.589.012 1.035.135 1.333.365.303.23.453.595.453 1.095 0 .512-.152.896-.459 1.153-.309.255-.75.378-1.327.365h.186z" fill="#15BACC"/></g></svg>