<svg width="268" height="100" xmlns="http://www.w3.org/2000/svg" xmlns:xlink="http://www.w3.org/1999/xlink"><defs><path id="a" d="M0 .861h264.73v52.073H0z"/><path id="c" d="M.011.56h107.612v25.742H.01z"/></defs><g fill="none" fill-rule="evenodd"><g transform="translate(0 25.717)"><mask id="b" fill="#fff"><use xlink:href="#a"/></mask><path d="M8.64 42.561V12.195h16.955v30.366h8.636V5.14H0v37.42h8.64zm42.6 10.373v-13.42c2.11 2.317 5.008 3.475 8.691 3.475 2.682 0 5.123-.613 7.323-1.846 2.201-1.227 3.924-2.956 5.177-5.184 1.25-2.226 1.878-4.82 1.878-7.779 0-2.959-.627-5.55-1.878-7.778-1.253-2.226-2.976-3.955-5.177-5.185-2.2-1.23-4.641-1.843-7.323-1.843-3.972 0-6.994 1.247-9.068 3.74V13.8H42.87v39.135h8.37zm7.243-16.787c-2.146 0-3.909-.722-5.288-2.166-1.374-1.444-2.063-3.375-2.063-5.8 0-2.423.69-4.358 2.063-5.802 1.38-1.444 3.142-2.166 5.288-2.166 2.147 0 3.907.722 5.286 2.166 1.374 1.444 2.063 3.379 2.063 5.801 0 2.426-.69 4.357-2.063 5.801-1.38 1.444-3.14 2.166-5.286 2.166zm29.401 6.414l14.006-17.109v17.11h8.313V13.798h-7.67l-14.057 17.11v-17.11H80.16v28.763h7.726zm45.018.642c3.039 0 5.758-.579 8.153-1.737 2.395-1.159 4.267-2.8 5.606-4.92 1.342-2.12 2.015-4.554 2.015-7.296 0-2.673-.564-5.025-1.692-7.056-1.127-2.032-2.727-3.61-4.802-4.731-2.074-1.125-4.487-1.687-7.243-1.687-2.074 0-3.989.368-5.74 1.099a12.67 12.67 0 00-4.507 3.127c.286-2.745 1.224-4.865 2.816-6.363 1.594-1.498 4.032-2.565 7.326-3.207l12.125-2.406-1.128-7.165L132.1 3.59c-5.226 1.068-9.098 3.322-11.619 6.763-2.52 3.438-3.783 8.047-3.783 13.82 0 6.237 1.442 10.968 4.321 14.192 2.876 3.227 6.84 4.84 11.885 4.84zm.051-6.468c-2.109 0-3.843-.688-5.205-2.06-1.36-1.37-2.038-3.145-2.038-5.316 0-2.178.664-3.907 1.986-5.188 1.323-1.284 3.077-1.926 5.257-1.926 2.147 0 3.872.642 5.177 1.926 1.308 1.281 1.96 3.01 1.96 5.188 0 2.137-.652 3.9-1.96 5.29-1.305 1.39-3.03 2.086-5.177 2.086zm34.927 6.254c3.042 0 5.761-.633 8.16-1.897 2.394-1.264 4.272-3.022 5.631-5.267 1.36-2.243 2.04-4.794 2.04-7.645 0-2.85-.68-5.399-2.04-7.644-1.36-2.246-3.237-4-5.632-5.265-2.398-1.267-5.117-1.897-8.159-1.897-3.039 0-5.766.63-8.178 1.897-2.416 1.264-4.304 3.02-5.66 5.265-1.36 2.245-2.041 4.794-2.041 7.644 0 2.85.681 5.402 2.04 7.645 1.357 2.245 3.245 4.003 5.66 5.267 2.413 1.264 5.14 1.897 8.18 1.897zm0-6.842c-2.146 0-3.914-.722-5.308-2.166-1.396-1.444-2.092-3.375-2.092-5.8 0-2.423.696-4.358 2.092-5.802 1.394-1.444 3.162-2.166 5.308-2.166 2.147 0 3.912.722 5.286 2.166 1.38 1.444 2.069 3.379 2.069 5.801 0 2.426-.69 4.357-2.069 5.801-1.374 1.444-3.14 2.166-5.286 2.166zm29.888 16.787v-13.42c2.11 2.317 5.008 3.475 8.691 3.475 2.681 0 5.125-.613 7.326-1.846 2.198-1.227 3.926-2.956 5.177-5.184 1.253-2.226 1.877-4.82 1.877-7.779 0-2.959-.624-5.55-1.877-7.778-1.25-2.226-2.98-3.955-5.177-5.185-2.2-1.23-4.645-1.843-7.326-1.843-3.97 0-6.991 1.247-9.066 3.74V13.8H189.4v39.135h8.37zm7.243-16.787c-2.146 0-3.906-.722-5.286-2.166-1.376-1.444-2.063-3.375-2.063-5.8 0-2.423.687-4.358 2.063-5.802 1.38-1.444 3.14-2.166 5.286-2.166 2.146 0 3.906.722 5.286 2.166 1.376 1.444 2.063 3.379 2.063 5.801 0 2.426-.687 4.357-2.063 5.801-1.38 1.444-3.14 2.166-5.286 2.166zm35.734 6.469c4.007 0 7.1-.873 9.283-2.62 2.181-1.746 3.271-4.223 3.271-7.43 0-3.068-.964-5.419-2.898-7.06-1.93-1.637-4.774-2.476-8.528-2.51h-6.868v-9.197h-8.32V42.56l14.06.055zm15.668-.055h8.316V13.8h-8.316v28.76zm-16.103-5.878l-.315-.002h-4.99V28.34l4.99.054c1.646.034 2.888.374 3.726 1.016.842.642 1.262 1.658 1.262 3.047 0 1.424-.429 2.494-1.285 3.208-.861.713-2.094 1.053-3.703 1.016l.315.002z" fill="#FFF" mask="url(#b)"/></g><path d="M260.623 76.938v14.325l-.003.17a5.052 5.052 0 01-5.054 4.872H8.681a5.052 5.052 0 01-5.054-4.871l-.002-.171V76.938H.013v15.044c0 4.377 3.557 7.924 7.947 7.924h248.327c4.393 0 7.95-3.547 7.95-7.924V76.938h-3.614z" fill-opacity=".3" fill="#FFF"/><path d="M14.32 87.21a2.857 2.857 0 01-2.861 2.853 2.857 2.857 0 01-2.862-2.853 2.857 2.857 0 012.862-2.853 2.857 2.857 0 012.862 2.853m240.383 0a2.857 2.857 0 01-2.862 2.853 2.857 2.857 0 01-2.862-2.853 2.857 2.857 0 012.862-2.853 2.857 2.857 0 012.862 2.853" fill-opacity=".3" fill="#FFF"/><g transform="translate(160.255 .036)"><mask id="d" fill="#fff"><use xlink:href="#c"/></mask><path d="M10.064 21.49c1.609 0 3.068-.282 4.376-.844a8.593 8.593 0 003.29-2.46l-2.758-2.536c-1.256 1.46-2.813 2.194-4.667 2.194-1.15 0-2.178-.25-3.077-.753a5.358 5.358 0 01-2.112-2.103c-.5-.899-.752-1.92-.752-3.065 0-1.144.252-2.168.752-3.067a5.35 5.35 0 012.112-2.1c.899-.502 1.926-.754 3.077-.754 1.854 0 3.41.722 4.667 2.17l2.759-2.54A8.771 8.771 0 0014.454 3.2c-1.299-.562-2.753-.844-4.361-.844-1.912 0-3.632.41-5.16 1.23-1.53.819-2.733 1.954-3.608 3.407C.452 8.448.01 10.09.01 11.923c0 1.832.44 3.476 1.314 4.931.875 1.452 2.077 2.588 3.608 3.407 1.528.819 3.24 1.23 5.131 1.23zm13.98-.316l6.922-8.457v8.457h4.112V6.956h-3.794l-6.948 8.457V6.956h-4.113v14.218h3.82zm22.252.317c1.506 0 2.848-.288 4.032-.859 1.185-.574 2.112-1.384 2.773-2.431.664-1.05.996-2.251.996-3.607 0-1.324-.28-2.485-.835-3.49a5.818 5.818 0 00-2.375-2.34c-1.028-.553-2.221-.833-3.58-.833a7.334 7.334 0 00-2.84.543 6.335 6.335 0 00-2.229 1.546c.144-1.358.607-2.405 1.394-3.144.787-.74 1.995-1.27 3.62-1.587l5.995-1.19-.555-3.54L45.9 1.904c-2.582.53-4.496 1.644-5.741 3.344-1.248 1.7-1.872 3.978-1.872 6.834 0 3.082.713 5.422 2.135 7.017 1.425 1.592 3.383 2.39 5.875 2.39zm.029-3.199c-1.042 0-1.9-.34-2.576-1.018-.67-.677-1.004-1.553-1.004-2.628 0-1.076.326-1.93.982-2.563.652-.636 1.52-.953 2.598-.953 1.062 0 1.914.317 2.558.953.647.634.968 1.487.968 2.563 0 1.055-.32 1.928-.968 2.616-.644.688-1.496 1.03-2.558 1.03zm14.403 2.882l6.922-8.457v8.457h4.113V6.956h-3.795l-6.948 8.457V6.956h-4.112v14.218h3.82zm19.125 5.128v-6.634c1.041 1.144 2.475 1.717 4.298 1.717 1.325 0 2.53-.305 3.617-.913a6.553 6.553 0 002.561-2.562c.621-1.102.928-2.383.928-3.847 0-1.46-.307-2.742-.928-3.846a6.572 6.572 0 00-2.56-2.562c-1.088-.608-2.293-.91-3.618-.91-1.966 0-3.457.613-4.484 1.848V6.956h-3.955v19.346h4.14zm3.58-8.3c-1.06 0-1.932-.358-2.61-1.07-.684-.714-1.025-1.67-1.025-2.869 0-1.198.34-2.154 1.025-2.867.678-.714 1.55-1.07 2.61-1.07 1.061 0 1.931.356 2.612 1.07.681.713 1.022 1.669 1.022 2.867 0 1.199-.34 2.155-1.022 2.868-.68.713-1.55 1.07-2.612 1.07zm17.88 3.198c1.997 0 3.548-.437 4.653-1.31 1.104-.87 1.66-2.091 1.66-3.658 0-1.498-.498-2.657-1.489-3.478-.987-.82-2.412-1.236-4.27-1.253H98.26V6.956h-4.11v14.218l7.164.026zm-.115-2.933H98.26v-4.124l2.682.026c.812.017 1.428.185 1.84.502.417.317.623.82.623 1.507 0 .705-.208 1.232-.632 1.586-.426.351-1.036.52-1.831.503h.257z" fill="#15BACC" mask="url(#d)"/></g><path d="M.012 22.863v-9.337c0-4.377 3.557-7.923 7.947-7.923h140.862v3.6H8.68c-2.734 0-4.963 2.166-5.052 4.871l-.003.172v8.617H.012z" fill-opacity=".3" fill="#FFF"/><path d="M14.32 18.728a2.857 2.857 0 01-2.861 2.853 2.857 2.857 0 01-2.862-2.853 2.857 2.857 0 012.862-2.854 2.857 2.857 0 012.862 2.854" fill-opacity=".3" fill="#FFF"/></g></svg>