<svg xmlns="http://www.w3.org/2000/svg" width="27" height="36"><path d="M6.317.42l-.012.006c-7.209 3.871-8.642 11.702-2.25 23.29 6.381 11.568 13.803 14.59 21.02 10.715 1.995-1.036 2.548-3.659 1.147-5.44l-3.374-4.233-.143-.172c-1.573-1.787-4.342-2.039-6.2-.515l-1.658 1.36-.35-.394a28.362 28.362 0 01-5.875-10.76l-.132-.469 2.006-.66a4.463 4.463 0 002.845-5.676l-1.819-5.035C10.78.333 8.308-.613 6.317.42zm3.322 2.689l1.814 5.022a2.458 2.458 0 01-1.583 3.117l-2.065.681c-.955.29-1.505 1.31-1.276 2.288a30.443 30.443 0 006.9 12.625c.722.717 1.87.784 2.628.184l1.717-1.409c1.05-.86 2.659-.684 3.51.387l3.37 4.228c.625.795.377 1.968-.512 2.43-6.178 3.317-12.446.765-18.336-9.913C-.017 12.193 1.088 5.642 7.031 2.309l.208-.114c.921-.478 2.063-.041 2.4.914z" fill="#15BACC"/></svg>