<svg xmlns="http://www.w3.org/2000/svg" width="16" height="20" viewBox="0 0 16 20">
    <g fill="none" fill-rule="evenodd">
        <g fill="#8A8A8A">
            <g>
                <g>
                    <path d="M15.905 9.946l-4.715 9.899c-.472 1.001-1.676 1.434-2.688.967l-7.334-3.381c-1.012-.467-1.45-1.657-.978-2.658L6.187 2.155c.472-1.001 1.676-1.434 2.69-.967l4.582 2.113c1.013.467 1.45 1.657.978 2.658l-4.286 8.993c-.473 1.001-1.676 1.434-2.689.967l-1.833-.845c-1.013-.467-1.451-1.657-.979-2.658l3.004-6.274c.237-.501.839-.717 1.344-.484.507.234.726.829.49 1.329l-2.576 5.368c-.237.5-.017 1.095.488 1.329.507.233 1.109.017 1.345-.484l3.432-7.179c.235-.501.017-1.097-.49-1.33l-2.75-1.268c-.506-.233-1.108-.017-1.344.484l-5.14 10.801c-.238.503-.017 1.1.492 1.335l5.491 2.532c.509.234 1.114.017 1.35-.486l4.285-8.988c.237-.501.839-.717 1.345-.484.506.233.725.829.49 1.329" transform="translate(-727 -1176) translate(108 546) translate(619 629)"/>
                </g>
            </g>
        </g>
    </g>
</svg>
