<svg xmlns="http://www.w3.org/2000/svg" width="29" height="23" viewBox="0 0 29 23">
    <g fill="none" fill-rule="evenodd">
        <g fill="#FFF" fill-rule="nonzero">
            <g>
                <path d="M5.828 69.421H0V67h7.577l1.418 4.337H29l-3.418 10.996H10.049L5.83 69.421zm5.97 10.491h12.008l1.913-6.154H9.786l2.012 6.154zM14.082 90c1.556 0 2.816-1.265 2.816-2.825 0-1.56-1.26-2.824-2.816-2.824-1.555 0-2.816 1.264-2.816 2.824 0 1.56 1.26 2.825 2.816 2.825zm8.852 0c1.555 0 2.816-1.265 2.816-2.825 0-1.56-1.26-2.824-2.816-2.824-1.556 0-2.817 1.264-2.817 2.824 0 1.56 1.261 2.825 2.817 2.825z" transform="translate(-1210 -111) translate(1210 44)"/>
            </g>
        </g>
    </g>
</svg>
