<svg xmlns="http://www.w3.org/2000/svg" width="20" height="20" viewBox="0 0 20 20">
    <g fill="none" fill-rule="evenodd">
        <g fill="#FFF">
            <g>
                <path d="M18 12h-4V8h3c.552 0 1 .448 1 1v3zm0 4h-.779c-.549-.61-1.336-1-2.221-1-.353 0-.686.072-1 .184V14h4v2zm-3 3c-.551 0-1-.449-1-1 0-.551.449-1 1-1 .551 0 1 .449 1 1 0 .551-.449 1-1 1zM12 6v10H9.484c-.446-1.722-1.997-3-3.859-3-1.087 0-2.069.436-2.787 1.142-.312.306-.838.074-.838-.363V4c0-.552.448-1 1-1h8c.552 0 1 .448 1 1v2zM7.347 18c-.347.595-.985 1-1.722 1s-1.375-.405-1.722-1c-.172-.295-.278-.634-.278-1s.106-.705.278-1c.347-.595.985-1 1.722-1s1.375.405 1.722 1c.172.295.278.634.278 1s-.106.705-.278 1zM18 6h-4V3c0-1.105-.895-2-2-2H2C.895 1 0 1.895 0 3v13.234C0 17.209.791 18 1.766 18c.447 1.722 1.997 3 3.859 3 1.862 0 3.412-1.278 3.859-3H12c0 1.657 1.343 3 3 3s3-1.343 3-3c1.105 0 2-.895 2-2V8c0-1.105-.895-2-2-2z" transform="translate(-705 -809) translate(705 808)"/>
            </g>
        </g>
    </g>
</svg>
