<svg xmlns="http://www.w3.org/2000/svg" width="24" height="34" viewBox="0 0 24 34">
    <g fill="none" fill-opacity=".43" fill-rule="evenodd">
        <g fill="#FFF" fill-rule="nonzero">
            <g>
                <path d="M55 591c6.627 0 12 5.373 12 12v10c0 6.627-5.373 12-12 12s-12-5.373-12-12v-10c0-6.627 5.373-12 12-12zm0 1c-5.972 0-10.833 4.615-10.996 10.368l-.004.299v10.666C44 619.224 48.925 624 55 624c5.972 0 10.833-4.615 10.996-10.368l.004-.299v-10.666C66 596.776 61.075 592 55 592zm.818 7.678v8.763l3.307-3.323v2.438l-4.12 4.122-4.13-4.122v-2.438l3.313 3.323v-8.763h1.63z" transform="translate(-43 -591)"/>
            </g>
        </g>
    </g>
</svg>
