<svg xmlns="http://www.w3.org/2000/svg" width="20" height="20" viewBox="0 0 20 20">
    <g fill="none" fill-rule="evenodd">
        <g fill="#FFF">
            <path d="M720.563 867.388l-8.695-8.693c-1.56 1.56-4.09 1.56-5.65 0l-1.633-1.633c-.78-.78-.78-2.044 0-2.824.78-.78 2.045-.78 2.825 0 1.087 1.087 2.278.987 3.044.22.773-.772.865-1.96-.224-3.048-.78-.78-.78-2.045 0-2.825.78-.78 2.045-.78 2.825 0l1.637 1.636c1.56 1.56 1.56 4.09 0 5.649l8.695 8.694c1.869 1.867-.958 4.69-2.824 2.824" transform="translate(-704 -848)"/>
        </g>
    </g>
</svg>
