<svg xmlns="http://www.w3.org/2000/svg" width="22" height="22" viewBox="0 0 22 22">
    <g fill="none" fill-rule="evenodd">
        <g fill="#FFF" fill-rule="nonzero">
            <g>
                <path d="M24.081 152.6c1.715.429 2.919 1.97 2.919 3.738v1.483c0 .651-.528 1.179-1.179 1.179H6.18C5.528 159 5 158.472 5 157.821v-1.483c0-1.768 1.203-3.309 2.919-3.739l4.214-1.053-.005-.538c-.005-.482-.206-.962-.571-1.363-1.203-1.318-1.79-2.589-1.98-4.067-.072-.555-.085-.977-.085-1.93 0-3.647 2.87-6.582 6.53-6.648 3.617.066 6.486 3.002 6.486 6.648 0 .954-.013 1.376-.085 1.931-.19 1.478-.777 2.749-1.98 4.067-.365.4-.566.881-.57 1.364l-.006.537 4.214 1.053zm.562 3.738c0-.686-.467-1.285-1.133-1.45l-4.434-1.109c-.93-.232-1.58-1.072-1.569-2.03l.008-.764c.011-1.08.441-2.111 1.187-2.928.875-.96 1.254-1.78 1.383-2.78.055-.421.066-.776.066-1.629 0-2.364-1.843-4.248-4.13-4.291-2.33.043-4.172 1.927-4.172 4.29 0 .853.011 1.208.066 1.63.129.999.508 1.82 1.383 2.78.746.816 1.176 1.848 1.187 2.927l.008.763c.01.958-.639 1.8-1.569 2.031l-4.433 1.108c-.666.167-1.134.766-1.134 1.452v.305h17.286v-.305z" transform="translate(-1215 -181) translate(1210 44)"/>
            </g>
        </g>
    </g>
</svg>
