<?xml version="1.0" encoding="UTF-8"?>
<svg width="268px" height="100px" viewBox="0 0 268 100" version="1.1" xmlns="http://www.w3.org/2000/svg" xmlns:xlink="http://www.w3.org/1999/xlink">
    <!-- Generator: Sketch 63.1 (92452) - https://sketch.com -->
    <title>Group 17</title>
    <desc>Created with Sketch.</desc>
    <defs>
        <polygon id="path-1" points="0 0.861449882 264.730054 0.861449882 264.730054 52.9336556 0 52.9336556"></polygon>
        <polygon id="path-3" points="0.0111606383 0.559271868 107.622894 0.559271868 107.622894 26.301757 0.0111606383 26.301757"></polygon>
    </defs>
    <g id="1280" stroke="none" stroke-width="1" fill="none" fill-rule="evenodd">
        <g id="2-Главная-приборы" transform="translate(-218.000000, -167.000000)">
            <g id="Group-17" transform="translate(218.000000, 166.000000)">
                <g id="Group-3" transform="translate(0.000000, 26.716604)">
                    <mask id="mask-2" fill="white">
                        <use xlink:href="#path-1"></use>
                    </mask>
                    <g id="Clip-2"></g>
                    <path d="M8.63919255,42.5614452 L8.63919255,12.1952655 L25.5947777,12.1952655 L25.5947777,42.5614452 L34.2313947,42.5614452 L34.2313947,5.1387383 L-0.000286170213,5.1387383 L-0.000286170213,42.5614452 L8.63919255,42.5614452 Z M51.2413521,52.9336556 L51.2413521,39.5139842 C53.3504266,41.8309676 56.2493309,42.9894593 59.9323415,42.9894593 C62.6137564,42.9894593 65.0547883,42.3759723 67.2554372,41.1432915 C69.4560862,39.9163175 71.1788309,38.1871402 72.4322564,35.958613 C73.6828202,33.7329392 74.309533,31.1391733 74.309533,28.1801686 C74.309533,25.2211638 73.6828202,22.6302513 72.4322564,20.4017241 C71.1788309,18.1760504 69.4560862,16.446873 67.2554372,15.2170456 C65.0547883,13.9872182 62.6137564,13.3737312 59.9323415,13.3737312 C55.9602989,13.3737312 52.9383415,14.6206792 50.8636074,17.1145752 L50.8636074,13.798892 L42.8708734,13.798892 L42.8708734,52.9336556 L51.2413521,52.9336556 Z M58.4843202,36.1469392 C56.3380436,36.1469392 54.5752351,35.425022 53.1958947,33.9811875 C51.8222777,32.537353 51.1326074,30.6055823 51.1326074,28.1801686 C51.1326074,25.7576083 51.8222777,23.8229842 53.1958947,22.3791496 C54.5752351,20.9353151 56.3380436,20.2133979 58.4843202,20.2133979 C60.6305968,20.2133979 62.3905436,20.9353151 63.769884,22.3791496 C65.1435011,23.8229842 65.8331713,25.7576083 65.8331713,28.1801686 C65.8331713,30.6055823 65.1435011,32.537353 63.769884,33.9811875 C62.3905436,35.425022 60.6305968,36.1469392 58.4843202,36.1469392 L58.4843202,36.1469392 Z M87.8854479,42.5614452 L101.890618,25.4522915 L101.890618,42.5614452 L110.203863,42.5614452 L110.203863,13.798892 L102.534501,13.798892 L88.4749585,30.9080456 L88.4749585,13.798892 L80.1588521,13.798892 L80.1588521,42.5614452 L87.8854479,42.5614452 Z M132.902884,43.2034664 C135.942012,43.2034664 138.660629,42.6242206 141.055873,41.4657288 C143.451118,40.3072371 145.322671,38.6665161 146.661948,36.5464191 C148.004086,34.4263222 148.676586,31.9923482 148.676586,29.250204 C148.676586,26.5765421 148.112831,24.2253175 146.98532,22.1936768 C145.85781,20.1620362 144.258118,18.5840905 142.183384,17.4626934 C140.10865,16.3384428 137.696235,15.7763175 134.940416,15.7763175 C132.865682,15.7763175 130.951203,16.1444097 129.199841,16.8748872 C127.44848,17.6025113 125.943224,18.646866 124.692661,20.0022442 C124.978831,17.2572466 125.917469,15.1371496 127.508576,13.6391 C129.102544,12.1410504 131.540714,11.0738683 134.834533,10.431847 L146.959565,8.02640733 L145.832054,0.861449882 L132.098746,3.58932695 C126.873278,4.65650898 123.001395,6.91071702 120.480235,10.3519511 C117.959076,13.7903317 116.697065,18.3986177 116.697065,24.1711024 C116.697065,30.4086957 118.139363,35.1396792 121.018235,38.3640527 C123.894246,41.5912797 127.857703,43.2034664 132.902884,43.2034664 L132.902884,43.2034664 Z M132.954395,36.7347454 C130.84532,36.7347454 129.111129,36.0470693 127.748959,34.6745704 C126.38965,33.3049251 125.711427,31.5300929 125.711427,29.3586343 C125.711427,27.1814688 126.375341,25.4522915 127.697448,24.1711024 C129.019554,22.8870598 130.773778,22.2450385 132.954395,22.2450385 C135.100671,22.2450385 136.826278,22.8870598 138.131214,24.1711024 C139.439012,25.4522915 140.09148,27.1814688 140.09148,29.3586343 C140.09148,31.4958518 139.439012,33.2592702 138.131214,34.6488896 C136.826278,36.038509 135.100671,36.7347454 132.954395,36.7347454 L132.954395,36.7347454 Z M167.881469,42.9894593 C170.923459,42.9894593 173.642076,42.3559983 176.040182,41.0919298 C178.435427,39.8278612 180.312703,38.0701496 181.672012,35.8245019 C183.03132,33.5817076 183.712405,31.030743 183.712405,28.1801686 C183.712405,25.3295941 183.03132,22.781483 181.672012,20.5358352 C180.312703,18.2901875 178.435427,16.5353293 176.040182,15.2712608 C173.642076,14.0043388 170.923459,13.3737312 167.881469,13.3737312 C164.842341,13.3737312 162.115139,14.0043388 159.702724,15.2712608 C157.287448,16.5353293 155.398724,18.2901875 154.042278,20.5358352 C152.682969,22.781483 152.001884,25.3295941 152.001884,28.1801686 C152.001884,31.030743 152.682969,33.5817076 154.042278,35.8245019 C155.398724,38.0701496 157.287448,39.8278612 159.702724,41.0919298 C162.115139,42.3559983 164.842341,42.9894593 167.881469,42.9894593 L167.881469,42.9894593 Z M167.881469,36.1469392 C165.735193,36.1469392 163.966661,35.425022 162.573012,33.9811875 C161.176501,32.537353 160.481107,30.6055823 160.481107,28.1801686 C160.481107,25.7576083 161.176501,23.8229842 162.573012,22.3791496 C163.966661,20.9353151 165.735193,20.2133979 167.881469,20.2133979 C170.027746,20.2133979 171.793416,20.9353151 173.167033,22.3791496 C174.546373,23.8229842 175.236044,25.7576083 175.236044,28.1801686 C175.236044,30.6055823 174.546373,32.537353 173.167033,33.9811875 C171.793416,35.425022 170.027746,36.1469392 167.881469,36.1469392 L167.881469,36.1469392 Z M197.769086,52.9336556 L197.769086,39.5139842 C199.878161,41.8309676 202.777065,42.9894593 206.460076,42.9894593 C209.14149,42.9894593 211.585384,42.3759723 213.786033,41.1432915 C215.98382,39.9163175 217.712288,38.1871402 218.962852,35.958613 C220.216278,33.7329392 220.840129,31.1391733 220.840129,28.1801686 C220.840129,25.2211638 220.216278,22.6302513 218.962852,20.4017241 C217.712288,18.1760504 215.98382,16.446873 213.786033,15.2170456 C211.585384,13.9872182 209.14149,13.3737312 206.460076,13.3737312 C202.490895,13.3737312 199.468937,14.6206792 197.394203,17.1145752 L197.394203,13.798892 L189.398607,13.798892 L189.398607,52.9336556 L197.769086,52.9336556 Z M205.012054,36.1469392 C202.865778,36.1469392 201.105831,35.425022 199.72649,33.9811875 C198.350012,32.537353 197.663203,30.6055823 197.663203,28.1801686 C197.663203,25.7576083 198.350012,23.8229842 199.72649,22.3791496 C201.105831,20.9353151 202.865778,20.2133979 205.012054,20.2133979 C207.158331,20.2133979 208.918278,20.9353151 210.297618,22.3791496 C211.674097,23.8229842 212.360905,25.7576083 212.360905,28.1801686 C212.360905,30.6055823 211.674097,32.537353 210.297618,33.9811875 C208.918278,35.425022 207.158331,36.1469392 205.012054,36.1469392 L205.012054,36.1469392 Z M240.746129,42.6156603 C244.752512,42.6156603 247.846012,41.7425113 250.02949,39.9962135 C252.210107,38.2499156 253.300416,35.7731402 253.300416,32.5658872 C253.300416,29.4984522 252.336022,27.1472277 250.401512,25.5065066 C248.472724,23.868639 245.628193,23.0297312 241.873639,22.9954901 L235.005554,22.9954901 L235.005554,13.798892 L226.686586,13.798892 L226.686586,42.5614452 L240.746129,42.6156603 Z M256.413948,42.5614452 L264.730054,42.5614452 L264.730054,13.798892 L256.413948,13.798892 L256.413948,42.5614452 Z M240.31115,36.6833837 L239.996363,36.6805303 L235.005554,36.6805303 L235.005554,28.3399605 L239.996363,28.3941757 C241.641841,28.4284168 242.88382,28.7679747 243.722299,29.409996 C244.563639,30.0520173 244.98431,31.0678376 244.98431,32.457457 C244.98431,33.8813175 244.555054,34.951353 243.699405,35.6647099 C242.838033,36.3780669 241.604639,36.7176248 239.996363,36.6805303 L240.31115,36.6833837 Z" id="Fill-1" fill="#FFFFFF" mask="url(#mask-2)"></path>
                </g>
                <path d="M260.622653,77.938488 L260.622653,92.2626961 L260.619791,92.4339017 C260.528217,95.1389514 258.298951,97.3047032 255.566026,97.3047032 L240.396143,97.3047032 L8.68125957,97.3047032 C5.94833404,97.3047032 3.71906809,95.1389514 3.62749362,92.4339017 L3.62463191,92.2626961 L3.62463191,77.938488 L0.0131638298,77.938488 L0.0131638298,92.9817599 C0.0131638298,97.3589183 3.57025957,100.905729 7.96011064,100.905729 L240.396143,100.905729 L256.287174,100.905729 C260.679887,100.905729 264.236983,97.3589183 264.236983,92.9817599 L264.236983,77.938488 L260.622653,77.938488 Z" id="Fill-4" fill-opacity="0.3" fill="#FFFFFF"></path>
                <path d="M14.3205298,88.2099724 C14.3205298,89.7850646 13.0413489,91.0634003 11.4588277,91.0634003 C9.87630638,91.0634003 8.59712553,89.7850646 8.59712553,88.2099724 C8.59712553,86.6348802 9.87630638,85.3565445 11.4588277,85.3565445 C13.0413489,85.3565445 14.3205298,86.6348802 14.3205298,88.2099724" id="Fill-6" fill-opacity="0.3" fill="#FFFFFF"></path>
                <path d="M254.703509,88.2099724 C254.703509,89.7850646 253.424328,91.0634003 251.841806,91.0634003 C250.259285,91.0634003 248.980104,89.7850646 248.980104,88.2099724 C248.980104,86.6348802 250.259285,85.3565445 251.841806,85.3565445 C253.424328,85.3565445 254.703509,86.6348802 254.703509,88.2099724" id="Fill-8" fill-opacity="0.3" fill="#FFFFFF"></path>
                <g id="Group-12" transform="translate(160.255319, 1.035753)">
                    <mask id="mask-4" fill="white">
                        <use xlink:href="#path-3"></use>
                    </mask>
                    <g id="Clip-11"></g>
                    <path d="M10.0643202,21.4908775 C11.6725968,21.4908775 13.1320649,21.2083882 14.4398628,20.6462629 C15.7505223,20.0812842 16.8465543,19.2623504 17.7308202,18.186608 L14.9721394,15.6499106 C13.7158521,17.1108657 12.1590862,17.8441967 10.3047032,17.8441967 C9.15429894,17.8441967 8.12694787,17.593095 7.2283734,17.0908917 C6.32407553,16.5886884 5.62009681,15.8867452 5.11643723,14.9879154 C4.61563936,14.0890856 4.36380957,13.0675584 4.36380957,11.9233338 C4.36380957,10.7791092 4.61563936,9.75472861 5.11643723,8.85589882 C5.62009681,7.95706903 6.32407553,7.2579792 7.2283734,6.75577589 C8.12694787,6.25357258 9.15429894,6.00247092 10.3047032,6.00247092 C12.1590862,6.00247092 13.7158521,6.72438818 14.9721394,8.17107612 L17.7308202,5.6315253 C16.8465543,4.57575697 15.753384,3.76538345 14.4541713,3.20040473 C13.1549585,2.63827943 11.7012138,2.35579007 10.0929372,2.35579007 C8.18132021,2.35579007 6.46143723,2.76668369 4.9332883,3.58561749 C3.40227766,4.4045513 2.20036277,5.5402156 1.32468191,6.9926104 C0.451862766,8.44785863 0.0111606383,10.0914331 0.0111606383,11.9233338 C0.0111606383,13.7552345 0.451862766,15.398809 1.32468191,16.8540572 C2.20036277,18.306452 3.40227766,19.4421163 4.9332883,20.2610501 C6.46143723,21.0799839 8.17273511,21.4908775 10.0643202,21.4908775 L10.0643202,21.4908775 Z M24.0437351,21.174147 L30.9661926,12.7165868 L30.9661926,21.174147 L35.0784585,21.174147 L35.0784585,6.95551584 L31.2838415,6.95551584 L24.3356287,15.4130761 L24.3356287,6.95551584 L20.2233628,6.95551584 L20.2233628,21.174147 L24.0437351,21.174147 Z M46.2963309,21.4908775 C47.8015862,21.4908775 49.1437245,21.2026813 50.3284691,20.6319957 C51.5132138,20.0584567 52.4404053,19.2480832 53.1014585,18.2008752 C53.7653734,17.1508137 54.0973309,15.9495206 54.0973309,14.5941423 C54.0973309,13.2701518 53.816884,12.1088066 53.2617138,11.1044 C52.7036819,10.0999934 51.9138521,9.31815414 50.8865011,8.76458913 C49.85915,8.21102411 48.6658202,7.93138818 47.3065117,7.93138818 C46.2791606,7.93138818 45.3347989,8.11400757 44.4677032,8.47353948 C43.6034691,8.83592482 42.8594266,9.34954184 42.2384372,10.0200974 C42.3815223,8.66186572 42.8451181,7.61465768 43.6320862,6.87561986 C44.4190543,6.13658203 45.6266926,5.60584444 47.2521394,5.28911395 L53.2474053,4.09923452 L52.6922351,0.558130496 L45.8985543,1.90494846 C43.3172989,2.43568605 41.4028202,3.54852293 40.1579798,5.24916596 C38.9102777,6.94980898 38.2864266,9.22684444 38.2864266,12.0831258 C38.2864266,15.1648279 38.9989904,17.5046388 40.4212564,19.099705 C41.846384,20.6919177 43.8037883,21.4908775 46.2963309,21.4908775 L46.2963309,21.4908775 Z M46.3249479,18.2921849 C45.2832883,18.2921849 44.4247777,17.952627 43.749416,17.2735111 C43.0797777,16.5972487 42.7449585,15.7212463 42.7449585,14.645504 C42.7449585,13.5697617 43.0711926,12.7165868 43.7265223,12.0831258 C44.3789904,11.4468113 45.2460862,11.1300809 46.3249479,11.1300809 C47.3866394,11.1300809 48.2394266,11.4468113 48.8833096,12.0831258 C49.5300543,12.7165868 49.8505649,13.5697617 49.8505649,14.645504 C49.8505649,15.7012723 49.5300543,16.5744213 48.8833096,17.2620974 C48.2394266,17.9497735 47.3866394,18.2921849 46.3249479,18.2921849 L46.3249479,18.2921849 Z M60.7278947,21.174147 L67.6503521,12.7165868 L67.6503521,21.174147 L71.7626181,21.174147 L71.7626181,6.95551584 L67.9680011,6.95551584 L61.0197883,15.4130761 L61.0197883,6.95551584 L56.9075223,6.95551584 L56.9075223,21.174147 L60.7278947,21.174147 Z M79.85265,26.301757 L79.85265,19.6675371 C80.8943096,20.8117617 82.3280223,21.3853007 84.1509266,21.3853007 C85.4758947,21.3853007 86.6806713,21.0799839 87.7681181,20.4722038 C88.8555649,19.8644236 89.7112138,19.0112487 90.3293415,17.9098255 C90.9503309,16.8084024 91.256533,15.5272132 91.256533,14.0634047 C91.256533,12.6024496 90.9503309,11.3212605 90.3293415,10.2169839 C89.7112138,9.11841418 88.8555649,8.26238582 87.7681181,7.65460567 C86.6806713,7.04682553 85.4758947,6.74436217 84.1509266,6.74436217 C82.1849372,6.74436217 80.6939904,7.35784917 79.6666394,8.59338345 L79.6666394,6.95551584 L75.711767,6.95551584 L75.711767,26.301757 L79.85265,26.301757 Z M83.4326394,18.0011352 C82.3738096,18.0011352 81.5009904,17.6444567 80.822767,16.9310998 C80.1388202,16.2177428 79.7982777,15.2618444 79.7982777,14.0634047 C79.7982777,12.864965 80.1388202,11.9090667 80.822767,11.1957097 C81.5009904,10.4823527 82.3738096,10.1256742 83.4326394,10.1256742 C84.4943309,10.1256742 85.3642883,10.4823527 86.0453734,11.1957097 C86.7264585,11.9090667 87.0670011,12.864965 87.0670011,14.0634047 C87.0670011,15.2618444 86.7264585,16.2177428 86.0453734,16.9310998 C85.3642883,17.6444567 84.4943309,18.0011352 83.4326394,18.0011352 L83.4326394,18.0011352 Z M101.312554,21.1998279 C103.310022,21.1998279 104.861065,20.7632534 105.965682,19.8901045 C107.070299,19.019809 107.625469,17.7985418 107.625469,16.2320099 C107.625469,14.7339603 107.127533,13.5754686 106.137384,12.7536813 C105.150097,11.9347475 103.724969,11.518147 101.867724,11.5010265 L98.2591181,11.5010265 L98.2591181,6.95551584 L94.1497138,6.95551584 L94.1497138,21.174147 L101.312554,21.1998279 Z M101.198086,18.266504 L98.2591181,18.266504 L98.2591181,14.1433007 L100.940533,14.1689816 C101.753256,14.1861021 102.368522,14.3544544 102.780607,14.6711849 C103.198416,14.9879154 103.404459,15.4901187 103.404459,16.1777948 C103.404459,16.8825915 103.195554,17.4104757 102.772022,17.7643007 C102.345629,18.1152723 101.736086,18.2836246 100.940533,18.266504 L101.198086,18.266504 Z" id="Fill-10" fill="#15BACC" mask="url(#mask-4)"></path>
                </g>
                <path d="M0.0120191489,23.8628906 L0.0120191489,14.5264745 C0.0120191489,10.1493162 3.56911489,6.60250528 7.95896596,6.60250528 L148.82053,6.60250528 L148.82053,10.2035313 L8.68011489,10.2035313 C5.94718936,10.2035313 3.7179234,12.3692831 3.62921064,15.0743327 L3.62634894,15.2455384 L3.62634894,23.8628906 L0.0120191489,23.8628906 Z" id="Fill-13" fill-opacity="0.3" fill="#FFFFFF"></path>
                <path d="M14.3205298,19.7277029 C14.3205298,21.3027951 13.0413489,22.5811308 11.4588277,22.5811308 C9.87630638,22.5811308 8.59712553,21.3027951 8.59712553,19.7277029 C8.59712553,18.1526107 9.87630638,16.874275 11.4588277,16.874275 C13.0413489,16.874275 14.3205298,18.1526107 14.3205298,19.7277029" id="Fill-15" fill-opacity="0.3" fill="#FFFFFF"></path>
            </g>
        </g>
    </g>
</svg>