<svg xmlns="http://www.w3.org/2000/svg" width="54" height="72" viewBox="0 0 54 72">
    <g fill="none" fill-rule="evenodd">
        <g fill="#3D4A62">
            <path d="M708 1029c14.912 0 27 12.058 27 26.933 0 5.027-1.381 9.733-3.786 13.76h.046l-.24.322c-.867 1.407-1.86 2.728-2.963 3.948L707.767 1101l-19.877-27.096c-4.284-4.766-6.89-11.065-6.89-17.971 0-14.875 12.088-26.933 27-26.933zm0 38.155c6.213 0 11.25-5.025 11.25-11.222 0-6.198-5.037-11.222-11.25-11.222s-11.25 5.024-11.25 11.222c0 6.197 5.037 11.222 11.25 11.222z" transform="translate(-681 -1029)"/>
        </g>
    </g>
</svg>
