<svg xmlns="http://www.w3.org/2000/svg" width="21" height="12" viewBox="0 0 21 12">
    <g fill="none" fill-rule="evenodd">
        <g fill="#FFF">
            <g>
                <path d="M210.101 11.836l2.801-6.324c.285-.644.828-.686 1.205-.093l1.006 1.572c3.366-2.326 7.93-2.46 11.495.018 3.133 2.18 4.659 5.729 4.354 9.297-.033.39-.356.69-.742.691l-2.08.003c-.212 0-.413-.09-.555-.248-.141-.158-.21-.37-.19-.582.224-2.339-.78-4.728-2.825-6.152-1.743-1.213-4.877-1.375-7.331.304l.997 1.561c.378.593.118 1.08-.578 1.084L210.85 13c-.698.005-1.033-.52-.749-1.164" transform="translate(-915 -813) translate(705 808)"/>
            </g>
        </g>
    </g>
</svg>
