<svg width="31" height="31" viewBox="0 0 31 31" fill="none" xmlns="http://www.w3.org/2000/svg">
<path d="M29.7125 0.301289C29.3225 -0.0887109 28.6825 -0.0887109 28.2925 0.301289L21.0625 7.53129C19.3825 6.62129 17.3825 6.01129 15.0025 6.01129C6.8425 6.01129 2.9125 13.2813 2.0925 15.0113C2.5925 16.0813 4.2025 19.1413 7.2025 21.3913L0.8725 27.7213L0.2925 28.3013C-0.0975 28.6913 -0.0975 29.3313 0.2925 29.7213C0.4925 29.9113 0.7425 30.0113 1.0025 30.0113C1.2625 30.0113 1.5125 29.9113 1.7125 29.7213L29.7125 1.72129C30.1025 1.33129 30.1025 0.691289 29.7125 0.301289ZM10.8325 17.7613C10.3125 16.9713 10.0025 16.0313 10.0025 15.0113C10.0025 12.2513 12.2425 10.0113 15.0025 10.0113C16.0225 10.0113 16.9625 10.3213 17.7525 10.8413L10.8325 17.7613Z" fill="#fff"/>
<path d="M21.5234 12.4913L19.9144 14.1013C19.9734 14.3913 20.0034 14.7013 20.0034 15.0113C20.0034 17.7713 17.7634 20.0113 15.0034 20.0113C14.6934 20.0113 14.3834 19.9813 14.0934 19.9213L12.4844 21.5313L10.7344 23.2813C12.0034 23.7413 13.4234 24.0113 15.0034 24.0113C23.1634 24.0113 27.0934 16.7413 27.9134 15.0113C27.4934 14.1213 26.3124 11.8513 24.1934 9.82129L21.5234 12.4913Z" fill="#fff"/>
</svg>
