<svg xmlns="http://www.w3.org/2000/svg" width="27" height="36" viewBox="0 0 27 36">
    <g fill="none" fill-rule="evenodd">
        <g fill="#15BACC" fill-rule="nonzero">
            <path d="M589.317 28.42l-.012.006c-7.209 3.871-8.642 11.702-2.25 23.29 6.381 11.568 13.803 14.59 21.02 10.715 1.995-1.036 2.548-3.659 1.147-5.44l-3.374-4.233-.143-.172c-1.573-1.787-4.342-2.039-6.2-.515l-1.658 1.36-.35-.394c-2.718-3.115-4.706-6.752-5.875-10.76l-.132-.469 2.006-.66c2.371-.781 3.64-3.319 2.845-5.676l-1.819-5.035c-.742-2.104-3.214-3.05-5.205-2.017zm3.322 2.689l1.814 5.022c.433 1.286-.266 2.683-1.583 3.117l-2.065.681c-.955.29-1.505 1.31-1.276 2.288 1.284 4.748 3.613 9.006 6.9 12.625.722.717 1.87.784 2.628.184l1.717-1.409c1.05-.86 2.659-.684 3.51.387l3.37 4.228c.625.795.377 1.968-.512 2.43-6.178 3.317-12.446.765-18.336-9.913-5.823-10.556-4.718-17.107 1.225-20.44l.208-.114c.921-.478 2.063-.041 2.4.914z" transform="translate(-583 -28)"/>
        </g>
    </g>
</svg>
