<svg xmlns="http://www.w3.org/2000/svg" width="23" height="22" viewBox="0 0 23 22">
    <g fill="none" fill-rule="evenodd">
        <g fill="#FFF" fill-rule="nonzero">
            <g>
                <path d="M14.7 18.931c-5.357 0-9.7-4.238-9.7-9.465C5 4.238 9.343 0 14.7 0c5.357 0 9.7 4.238 9.7 9.466 0 5.227-4.343 9.465-9.7 9.465zm0-2.271c4.072 0 7.372-3.221 7.372-7.194s-3.3-7.194-7.372-7.194c-4.071 0-7.372 3.22-7.372 7.194 0 3.973 3.3 7.194 7.372 7.194zm4.426-1.498l1.617-1.635L28 20.366 26.383 22l-7.257-6.838z" transform="translate(-1215 -44) translate(1210 44)"/>
            </g>
        </g>
    </g>
</svg>
