<svg xmlns="http://www.w3.org/2000/svg" width="52" height="17" viewBox="0 0 52 17">
    <g fill="none" fill-rule="evenodd">
        <g fill="#5EB8F4" fill-rule="nonzero">
            <g>
                <path d="M956.208 226L953 242h3.889L960 226h-3.792zm-5.64.105l-4.433 10.842-1.838-9.263c-.216-1.052-1.08-1.579-1.946-1.579h-7.243l-.108.421c1.514.316 3.135.842 4.216 1.369.649.316.757.631.973 1.368L943.541 242h4.54L955 226h-4.432v.105zm33.218-.105h-3.643c-.857 0-1.5.421-1.822 1.158L972 242h4.393l.857-2.421h5.357l.536 2.421H987l-3.214-16zm-5.143 10.316l2.25-6 1.286 6h-3.536zm-12.468-5.412c0-.545.542-1.199 1.842-1.417.65-.109 2.275-.109 4.225.763l.758-3.487c-.975-.327-2.383-.763-4.008-.763-4.225 0-7.15 2.288-7.15 5.449 0 2.397 2.166 3.705 3.683 4.468 1.625.762 2.167 1.307 2.167 2.07 0 1.09-1.3 1.635-2.6 1.635-2.167 0-3.359-.545-4.334-1.09l-.758 3.596c.975.436 2.817.872 4.767.872 4.441 0 7.366-2.18 7.366-5.667 0-4.14-6.066-4.468-5.958-6.43z" transform="translate(-1044 -2915) translate(109 2689)"/>
            </g>
        </g>
    </g>
</svg>
